Coordinates
version=1
nRows=24
nColumns=38
inDegrees=no

Units are S.I. units (second, meters, Newtons, ...)
If the header above contains a line with 'inDegrees', this indicates whether rotational values are in degrees (yes) or radians (no).

endheader
time	pelvis_tilt	pelvis_list	pelvis_rotation	pelvis_tx	pelvis_ty	pelvis_tz	hip_flexion_r	hip_adduction_r	hip_rotation_r	knee_angle_r	ankle_angle_r	subtalar_angle_r	mtp_angle_r	hip_flexion_l	hip_adduction_l	hip_rotation_l	knee_angle_l	ankle_angle_l	subtalar_angle_l	mtp_angle_l	lumbar_extension	lumbar_bending	lumbar_rotation	arm_flex_r	arm_add_r	arm_rot_r	elbow_flex_r	pro_sup_r	wrist_flex_r	wrist_dev_r	arm_flex_l	arm_add_l	arm_rot_l	elbow_flex_l	pro_sup_l	wrist_flex_l	wrist_dev_l
45	-0.204055	1.11421	1.77552	0.644896	0.203741	0.713661	1.5241	-0.0865763	0.155155	1.63326	0.0580097	0	0	1.40994	-0.0673929	-0.0540592	1.66302	0.0893417	0	0	-0.789682	-0.0687214	-0.0468565	1.20087	-0.620412	0.336941	1.37824	0.588929	0	0	1.2726	-0.602491	0.406446	1.24402	0.770143	0	0
45.01	-0.201869	1.11263	1.77358	0.644889	0.204538	0.713452	1.52503	-0.0854692	0.15523	1.63401	0.0590943	0	0	1.41115	-0.06763	-0.0535078	1.66389	0.0901399	0	0	-0.789071	-0.0700095	-0.0483395	1.19837	-0.620654	0.334711	1.38074	0.589879	0	0	1.27332	-0.604404	0.408939	1.24507	0.769393	0	0
45.02	-0.199616	1.11119	1.7717	0.644839	0.205389	0.713325	1.52571	-0.084662	0.155167	1.63467	0.0601718	0	0	1.41203	-0.0678273	-0.0530212	1.66458	0.0909497	0	0	-0.788674	-0.0712947	-0.0497456	1.19547	-0.621243	0.332031	1.38363	0.590647	0	0	1.27403	-0.606021	0.411408	1.24614	0.768553	0	0
45.03	-0.197714	1.10966	1.77038	0.644759	0.206284	0.713246	1.52633	-0.0842255	0.15531	1.63533	0.0612098	0	0	1.41273	-0.0678104	-0.052763	1.66498	0.0918733	0	0	-0.788184	-0.0728331	-0.0512496	1.19177	-0.622082	0.328617	1.38686	0.591509	0	0	1.27481	-0.60707	0.41391	1.24728	0.767826	0	0
45.04	-0.19632	1.10629	1.76997	0.644682	0.207199	0.71303	1.52878	-0.0840952	0.156369	1.63598	0.065555	0	0	1.41512	-0.0670695	-0.0529426	1.66493	0.0938333	0	0	-0.785888	-0.075378	-0.0515602	1.18395	-0.624617	0.320544	1.39261	0.601915	0	0	1.27695	-0.606334	0.4193	1.24824	0.766545	0	0
45.05	-0.194829	1.1045	1.7695	0.644563	0.208114	0.71306	1.52928	-0.0843012	0.156776	1.63627	0.0656242	0	0	1.4158	-0.0662561	-0.0527635	1.66481	0.0941604	0	0	-0.785281	-0.0768946	-0.0525938	1.17988	-0.627003	0.317132	1.39629	0.600508	0	0	1.27778	-0.606376	0.421806	1.24992	0.767812	0	0
45.06	-0.193465	1.10172	1.76915	0.644487	0.209048	0.713085	1.53072	-0.0845419	0.157412	1.63634	0.0658986	0	0	1.41725	-0.0654964	-0.052956	1.66438	0.0946085	0	0	-0.784114	-0.0791409	-0.0527227	1.17391	-0.630732	0.311301	1.40166	0.599179	0	0	1.27913	-0.605199	0.424882	1.25191	0.7696	0	0
45.07	-0.191958	1.10125	1.76861	0.644362	0.209841	0.713278	1.52998	-0.084864	0.157262	1.63651	0.068313	0	0	1.41671	-0.0649157	-0.0525925	1.66429	0.0958728	0	0	-0.783423	-0.0776274	-0.0581973	1.17745	-0.624768	0.316261	1.39753	0.604318	0	0	1.27402	-0.61202	0.42173	1.25551	0.77088	0	0
45.08	-0.189924	1.10177	1.76715	0.644277	0.210641	0.713633	1.52793	-0.0847898	0.156493	1.63621	0.0689461	0	0	1.41512	-0.0651582	-0.0519423	1.66415	0.0960508	0	0	-0.784084	-0.0761426	-0.0617769	1.18137	-0.620625	0.321192	1.39347	0.608068	0	0	1.27039	-0.616788	0.419332	1.25778	0.77113	0	0
45.09	-0.188085	1.10152	1.76565	0.644192	0.21145	0.713997	1.52659	-0.0847145	0.155866	1.63562	0.0692819	0	0	1.4141	-0.0655601	-0.0515134	1.66369	0.0960851	0	0	-0.784429	-0.0753587	-0.0633682	1.18341	-0.618969	0.323657	1.39111	0.610969	0	0	1.26824	-0.618695	0.417938	1.2589	0.77202	0	0
45.1	-0.186689	1.10073	1.76453	0.644114	0.212288	0.714397	1.52573	-0.0848904	0.155315	1.63492	0.0694943	0	0	1.41333	-0.0659074	-0.0513541	1.66283	0.0960584	0	0	-0.784478	-0.0749393	-0.0641998	1.18452	-0.61828	0.324942	1.38933	0.614414	0	0	1.26646	-0.619077	0.41655	1.25927	0.773712	0	0
45.11	-0.185759	1.09946	1.76394	0.644039	0.213135	0.714807	1.52535	-0.0852921	0.155043	1.63419	0.0696147	0	0	1.41288	-0.0659968	-0.0514202	1.6617	0.0959489	0	0	-0.784064	-0.0749619	-0.0647039	1.18457	-0.618199	0.324972	1.38813	0.618526	0	0	1.26485	-0.618404	0.41553	1.25918	0.776016	0	0
45.12	-0.184819	1.09776	1.76348	0.643964	0.213981	0.715213	1.52534	-0.0857858	0.15495	1.63336	0.0696904	0	0	1.41285	-0.0659394	-0.0515952	1.66045	0.0957738	0	0	-0.783137	-0.0754082	-0.0650451	1.18347	-0.618607	0.323776	1.38744	0.624122	0	0	1.26347	-0.617024	0.414773	1.25899	0.778844	0	0
45.13	-0.183645	1.09584	1.76276	0.643908	0.214816	0.715637	1.5254	-0.0861303	0.154832	1.6322	0.0697536	0	0	1.41308	-0.065878	-0.0516651	1.65913	0.0956046	0	0	-0.781798	-0.07615	-0.0651168	1.18151	-0.619458	0.321732	1.38729	0.62929	0	0	1.26205	-0.614916	0.413644	1.25878	0.781854	0	0
45.14	-0.181855	1.09381	1.7615	0.64387	0.215663	0.716076	1.5255	-0.0863624	0.154435	1.631	0.0697628	0	0	1.41347	-0.0659126	-0.0515434	1.65777	0.0955538	0	0	-0.779905	-0.0766762	-0.0646623	1.17872	-0.620534	0.318926	1.38779	0.633674	0	0	1.25995	-0.611851	0.411366	1.25841	0.785355	0	0
45.15	-0.179869	1.09158	1.75995	0.643833	0.216536	0.716552	1.52566	-0.0864514	0.153914	1.62966	0.0697804	0	0	1.41386	-0.0659624	-0.0514172	1.65621	0.0956682	0	0	-0.7774	-0.0770047	-0.0635853	1.17525	-0.62172	0.315586	1.38872	0.637196	0	0	1.25679	-0.607642	0.407533	1.25773	0.788727	0	0
45.16	-0.177991	1.08939	1.75848	0.64379	0.21743	0.717081	1.52562	-0.0863212	0.153734	1.62819	0.0699168	0	0	1.4139	-0.0658508	-0.0513368	1.65433	0.0959168	0	0	-0.774814	-0.0772068	-0.0623176	1.17173	-0.622961	0.312395	1.38955	0.640227	0	0	1.25298	-0.602832	0.402807	1.25695	0.790908	0	0
45.17	-0.175608	1.08671	1.75664	0.643745	0.218303	0.717589	1.52601	-0.0861907	0.153397	1.62646	0.0702261	0	0	1.41429	-0.0656164	-0.0511148	1.652	0.0964739	0	0	-0.772228	-0.0777617	-0.0607117	1.16721	-0.625014	0.307893	1.39151	0.644648	0	0	1.25038	-0.598114	0.399656	1.25658	0.792805	0	0
45.18	-0.173276	1.08495	1.75493	0.643712	0.219161	0.718181	1.52529	-0.0858467	0.153164	1.62481	0.0698946	0	0	1.41357	-0.0653785	-0.0507986	1.64946	0.0967688	0	0	-0.771286	-0.0782588	-0.0607886	1.16514	-0.626219	0.306166	1.39246	0.638102	0	0	1.24886	-0.597236	0.398665	1.25823	0.791969	0	0
45.19	-0.171114	1.08275	1.75352	0.643674	0.220008	0.718703	1.52477	-0.0848111	0.154238	1.62309	0.0699973	0	0	1.41346	-0.0650315	-0.0506826	1.64713	0.0971334	0	0	-0.770354	-0.0796264	-0.0602478	1.16094	-0.628402	0.301644	1.3947	0.641007	0	0	1.24985	-0.596088	0.401127	1.25929	0.793095	0	0
45.2	-0.169708	1.08001	1.75275	0.643671	0.220855	0.719228	1.52487	-0.0844868	0.154743	1.6211	0.0702058	0	0	1.41381	-0.0645699	-0.0509514	1.64479	0.0974901	0	0	-0.769486	-0.0820843	-0.059564	1.15535	-0.631335	0.295351	1.39826	0.644018	0	0	1.25251	-0.595264	0.406177	1.2606	0.793966	0	0
45.21	-0.168491	1.07947	1.75202	0.643674	0.22153	0.719869	1.52326	-0.0848235	0.15379	1.61944	0.0705176	0	0	1.41255	-0.0642725	-0.05078	1.64311	0.0976708	0	0	-0.769452	-0.0821698	-0.0607801	1.15511	-0.629916	0.29495	1.39743	0.646751	0	0	1.25298	-0.598145	0.409882	1.26056	0.79373	0	0
45.22	-0.168516	1.08136	1.75267	0.643598	0.222269	0.720899	1.5185	-0.0856829	0.152964	1.61727	0.0735005	0	0	1.40811	-0.063443	-0.0508509	1.64079	0.0985551	0	0	-0.771056	-0.0795499	-0.0691688	1.1645	-0.617823	0.305404	1.38615	0.665899	0	0	1.24659	-0.609174	0.405245	1.26435	0.789451	0	0
45.23	-0.167722	1.08157	1.75238	0.643515	0.222991	0.72175	1.51561	-0.0856362	0.153075	1.61518	0.0736938	0	0	1.40566	-0.062777	-0.0507159	1.63854	0.0987143	0	0	-0.77168	-0.0783446	-0.0708978	1.16702	-0.615205	0.308667	1.38278	0.667436	0	0	1.24419	-0.610628	0.40307	1.26395	0.789396	0	0
